<mxfile host="app.diagrams.net" modified="2022-09-21T18:38:46.982Z" agent="5.0 (Windows NT 10.0; Win64; x64) AppleWebKit/537.36 (KHTML, like Gecko) Chrome/105.0.0.0 Safari/537.36" etag="dHn0ppVRRXcovmK1Cw8m" version="20.3.3" type="github">
  <diagram id="kfLZ9dSJKWBEJx95DfH-" name="Página-1">
    <mxGraphModel dx="1422" dy="770" grid="1" gridSize="10" guides="1" tooltips="1" connect="1" arrows="1" fold="1" page="1" pageScale="1" pageWidth="827" pageHeight="1169" math="0" shadow="0">
      <root>
        <mxCell id="0" />
        <mxCell id="1" parent="0" />
        <mxCell id="AfWFSYQK6_qRz2qE9IwU-3" value="" style="edgeStyle=orthogonalEdgeStyle;rounded=0;orthogonalLoop=1;jettySize=auto;html=1;" edge="1" parent="1" source="AfWFSYQK6_qRz2qE9IwU-1" target="AfWFSYQK6_qRz2qE9IwU-2">
          <mxGeometry relative="1" as="geometry" />
        </mxCell>
        <mxCell id="AfWFSYQK6_qRz2qE9IwU-1" value="inicio" style="ellipse;whiteSpace=wrap;html=1;" vertex="1" parent="1">
          <mxGeometry x="370" y="60" width="60" height="40" as="geometry" />
        </mxCell>
        <mxCell id="AfWFSYQK6_qRz2qE9IwU-5" value="" style="edgeStyle=orthogonalEdgeStyle;rounded=0;orthogonalLoop=1;jettySize=auto;html=1;" edge="1" parent="1" source="AfWFSYQK6_qRz2qE9IwU-2" target="AfWFSYQK6_qRz2qE9IwU-4">
          <mxGeometry relative="1" as="geometry" />
        </mxCell>
        <mxCell id="AfWFSYQK6_qRz2qE9IwU-2" value="base (float)&lt;br&gt;alt (float)&lt;br&gt;area (float)" style="whiteSpace=wrap;html=1;" vertex="1" parent="1">
          <mxGeometry x="340" y="120" width="120" height="60" as="geometry" />
        </mxCell>
        <mxCell id="AfWFSYQK6_qRz2qE9IwU-9" value="" style="edgeStyle=orthogonalEdgeStyle;rounded=0;orthogonalLoop=1;jettySize=auto;html=1;" edge="1" parent="1" source="AfWFSYQK6_qRz2qE9IwU-4" target="AfWFSYQK6_qRz2qE9IwU-8">
          <mxGeometry relative="1" as="geometry" />
        </mxCell>
        <mxCell id="AfWFSYQK6_qRz2qE9IwU-4" value="&quot;Ingrese base del triángulo&quot;" style="shape=document;whiteSpace=wrap;html=1;boundedLbl=1;" vertex="1" parent="1">
          <mxGeometry x="340" y="200" width="120" height="50" as="geometry" />
        </mxCell>
        <mxCell id="AfWFSYQK6_qRz2qE9IwU-11" value="" style="edgeStyle=orthogonalEdgeStyle;rounded=0;orthogonalLoop=1;jettySize=auto;html=1;" edge="1" parent="1" source="AfWFSYQK6_qRz2qE9IwU-8" target="AfWFSYQK6_qRz2qE9IwU-10">
          <mxGeometry relative="1" as="geometry" />
        </mxCell>
        <mxCell id="AfWFSYQK6_qRz2qE9IwU-8" value="base" style="shape=parallelogram;perimeter=parallelogramPerimeter;whiteSpace=wrap;html=1;fixedSize=1;" vertex="1" parent="1">
          <mxGeometry x="360" y="270" width="80" height="20" as="geometry" />
        </mxCell>
        <mxCell id="AfWFSYQK6_qRz2qE9IwU-13" value="" style="edgeStyle=orthogonalEdgeStyle;rounded=0;orthogonalLoop=1;jettySize=auto;html=1;" edge="1" parent="1" source="AfWFSYQK6_qRz2qE9IwU-10" target="AfWFSYQK6_qRz2qE9IwU-12">
          <mxGeometry relative="1" as="geometry" />
        </mxCell>
        <mxCell id="AfWFSYQK6_qRz2qE9IwU-10" value="&quot;Ingrese altura del triángulo&quot;" style="shape=document;whiteSpace=wrap;html=1;boundedLbl=1;" vertex="1" parent="1">
          <mxGeometry x="340" y="310" width="120" height="50" as="geometry" />
        </mxCell>
        <mxCell id="AfWFSYQK6_qRz2qE9IwU-15" value="" style="edgeStyle=orthogonalEdgeStyle;rounded=0;orthogonalLoop=1;jettySize=auto;html=1;" edge="1" parent="1" source="AfWFSYQK6_qRz2qE9IwU-12" target="AfWFSYQK6_qRz2qE9IwU-14">
          <mxGeometry relative="1" as="geometry" />
        </mxCell>
        <mxCell id="AfWFSYQK6_qRz2qE9IwU-12" value="altura" style="shape=parallelogram;perimeter=parallelogramPerimeter;whiteSpace=wrap;html=1;fixedSize=1;" vertex="1" parent="1">
          <mxGeometry x="360" y="380" width="80" height="30" as="geometry" />
        </mxCell>
        <mxCell id="AfWFSYQK6_qRz2qE9IwU-17" value="" style="edgeStyle=orthogonalEdgeStyle;rounded=0;orthogonalLoop=1;jettySize=auto;html=1;" edge="1" parent="1" source="AfWFSYQK6_qRz2qE9IwU-14" target="AfWFSYQK6_qRz2qE9IwU-16">
          <mxGeometry relative="1" as="geometry" />
        </mxCell>
        <mxCell id="AfWFSYQK6_qRz2qE9IwU-14" value="area = (base*alt)/2" style="shape=parallelogram;perimeter=parallelogramPerimeter;whiteSpace=wrap;html=1;fixedSize=1;" vertex="1" parent="1">
          <mxGeometry x="320" y="430" width="160" height="35" as="geometry" />
        </mxCell>
        <mxCell id="AfWFSYQK6_qRz2qE9IwU-19" value="" style="edgeStyle=orthogonalEdgeStyle;rounded=0;orthogonalLoop=1;jettySize=auto;html=1;" edge="1" parent="1" source="AfWFSYQK6_qRz2qE9IwU-16" target="AfWFSYQK6_qRz2qE9IwU-18">
          <mxGeometry relative="1" as="geometry" />
        </mxCell>
        <mxCell id="AfWFSYQK6_qRz2qE9IwU-16" value="&quot;El área del triángulo es &quot;,area" style="shape=document;whiteSpace=wrap;html=1;boundedLbl=1;" vertex="1" parent="1">
          <mxGeometry x="310" y="490" width="180" height="55" as="geometry" />
        </mxCell>
        <mxCell id="AfWFSYQK6_qRz2qE9IwU-18" value="fin" style="ellipse;whiteSpace=wrap;html=1;" vertex="1" parent="1">
          <mxGeometry x="370" y="567" width="60" height="35" as="geometry" />
        </mxCell>
      </root>
    </mxGraphModel>
  </diagram>
</mxfile>
